<?xml version="1.0" encoding="UTF-8" standalone="no"?><!DOCTYPE svg PUBLIC "-//W3C//DTD SVG 1.1//EN" "http://www.w3.org/Graphics/SVG/1.1/DTD/svg11.dtd"><svg width="100%" height="100%" viewBox="0 0 100 100" version="1.1" xmlns="http://www.w3.org/2000/svg" xmlns:xlink="http://www.w3.org/1999/xlink" xml:space="preserve" xmlns:serif="http://www.serif.com/" style="fill-rule:evenodd;clip-rule:evenodd;stroke-linejoin:round;stroke-miterlimit:2;"><g id="twitter"><circle cx="50" cy="50" r="50" style="fill:#2aa9e0;"/><clipPath id="_clip1"><rect id="twitter1" serif:id="twitter" x="20" y="25.775" width="60" height="48.761"/></clipPath><g clip-path="url(#_clip1)"><g><path d="M80,31.547c-2.207,0.98 -4.58,1.641 -7.07,1.939c2.541,-1.524 4.494,-3.936 5.412,-6.811c-2.378,1.411 -5.013,2.435 -7.817,2.987c-2.245,-2.392 -5.444,-3.887 -8.985,-3.887c-6.798,0 -12.31,5.512 -12.31,12.31c0,0.964 0.109,1.904 0.319,2.805c-10.23,-0.513 -19.3,-5.414 -25.372,-12.862c-1.059,1.818 -1.667,3.933 -1.667,6.189c0,4.271 2.174,8.038 5.477,10.246c-2.018,-0.064 -3.916,-0.618 -5.576,-1.54c-0.001,0.051 -0.001,0.103 -0.001,0.155c-0,5.964 4.243,10.939 9.874,12.07c-1.033,0.282 -2.12,0.432 -3.243,0.432c-0.793,0 -1.564,-0.077 -2.316,-0.221c1.567,4.891 6.113,8.45 11.499,8.549c-4.212,3.301 -9.52,5.269 -15.288,5.269c-0.993,0 -1.973,-0.058 -2.936,-0.172c5.448,3.493 11.918,5.531 18.87,5.531c22.642,-0 35.024,-18.757 35.024,-35.024c-0,-0.534 -0.012,-1.065 -0.036,-1.593c2.405,-1.735 4.491,-3.903 6.142,-6.372l0,0Z" style="fill:#fff;fill-rule:nonzero;"/></g></g></g></svg>